<svg width="36" height="39" viewBox="0 0 36 39" fill="none" xmlns="http://www.w3.org/2000/svg">
<path d="M12.9199 34.8528V29.4576C12.8855 26.9611 12.9199 26.9611 15.4624 26.9611H20.6161C23.1428 26.9994 23.1428 26.9994 23.1757 29.4576V34.8695C23.1754 36.0347 24.1289 36.9869 25.3231 37.0142H28.7589C33.9999 37.0142 34.9605 36.1346 34.9605 30.9656V15.6178C34.9423 14.3036 34.3096 13.0695 33.2426 12.2668L21.4922 3.03464C18.8213 0.94939 17.0356 0.94939 14.4488 3.03464L2.74988 12.2835C1.67887 13.083 1.04517 14.3192 1.03198 15.6346V30.9656C1.03198 36.1346 1.85703 37.0142 7.23361 37.0142H10.6694C11.8933 37.0142 12.8855 36.0465 12.8855 34.8528" stroke="#363636" stroke-width="2" stroke-linecap="round" stroke-linejoin="round"/>
</svg>
