<svg width="28" height="28" viewBox="0 0 28 28" fill="none" xmlns="http://www.w3.org/2000/svg"><path d="M13.9998 0.727862L14.1354 0.853015L26.9926 12.7168L26.9928 12.717C27.2548 12.9594 27.2711 13.3685 27.0259 13.6298C26.8983 13.7668 26.7248 13.8354 26.5517 13.8354C26.3948 13.8354 26.2358 13.7791 26.1108 13.6634L13.9998 0.727862ZM13.9998 0.727862L13.8642 0.853017L1.00746 12.7168L1.00729 12.717C0.745075 12.9595 0.729191 13.3685 0.973537 13.6302C1.21662 13.891 1.62724 13.9052 1.8888 13.6639L1.88883 13.6639L3.04105 12.6006V27V27.2H3.24105H10.4136H17.5861H24.7586H24.9586V27V12.6002L26.1105 13.6632L13.9998 0.727862ZM11.3101 25.9091H10.4136H4.33761V11.4038L13.9998 2.48783L23.662 11.4038V25.9091H17.5861H16.6895H11.3101Z" fill="black" stroke="black" stroke-width="0.4"></path></svg>